<svg xmlns="http://www.w3.org/2000/svg" xmlns:svg="http://www.w3.org/2000/svg" id="svg6809" width="136mm" height="136mm" version="1.1" viewBox="0 0 136 136"><metadata id="metadata6806"/><g id="layer1" transform="translate(0,-161)"><path style="opacity:1;fill:#000;fill-opacity:1;stroke:#000;stroke-width:.37795275;stroke-opacity:1" id="rect6822" d="M 64.169922 1.0078125 C 29.178442 1.0078125 1.0078125 29.178451 1.0078125 64.169922 L 1.0078125 449.8457 C 1.0078125 484.83721 29.178442 513.00781 64.169922 513.00781 L 449.8457 513.00781 C 484.83721 513.00781 513.00781 484.83721 513.00781 449.8457 L 513.00781 64.169922 C 513.00781 29.178451 484.83721 1.0078125 449.8457 1.0078125 L 64.169922 1.0078125 z M 403.40039 65.757812 L 425.71875 88.076172 L 448.03711 110.39453 L 419.64648 138.79102 L 391.25586 167.18945 L 419.11719 195.04297 L 446.97852 222.89648 L 410.72461 223.33008 C 390.78451 223.56899 355.58621 223.81146 332.50586 223.86719 L 290.54102 223.96875 L 290.64258 170.21875 C 290.69878 140.65625 290.9412 105.45635 291.17969 91.998047 L 291.61328 67.529297 L 319.10938 95.033203 L 346.60547 122.53906 L 375.00391 94.148438 L 403.40039 65.757812 z M 201.84766 290.39648 L 224.34766 290.39648 L 223.87305 337.6582 C 223.61213 363.65158 223.39844 398.92608 223.39844 416.04688 L 223.39844 447.17578 L 195.7168 419.5 C 180.49172 404.27868 167.71319 391.82422 167.32031 391.82422 C 166.92743 391.82422 154.07351 404.36021 138.75586 419.68164 C 123.43821 435.00306 110.74172 447.53906 110.54102 447.53906 C 110.34033 447.53906 100.21509 437.57531 88.041016 425.39648 L 65.90625 403.25195 L 93.9375 375.21484 C 109.35503 359.79361 121.9707 346.85787 121.9707 346.46875 C 121.9707 346.07962 109.72951 333.51845 94.769531 318.55469 L 67.570312 291.34766 L 123.45898 290.87109 C 154.19815 290.60975 189.47308 290.39648 201.84766 290.39648 z" transform="matrix(0.26458333,0,0,0.26458333,0,161)"/></g></svg>