<svg xmlns="http://www.w3.org/2000/svg" xmlns:svg="http://www.w3.org/2000/svg" id="svg6809" width="136mm" height="136mm" version="1.1" viewBox="0 0 136 136"><metadata id="metadata6806"/><g id="layer1" transform="translate(0,-161)"><path style="opacity:1;fill:#000;fill-opacity:1;stroke:#000;stroke-width:.1;stroke-opacity:1" id="rect6822" d="m 16.978306,161.26667 c -9.2581625,0 -16.7116405,7.45348 -16.7116405,16.71164 v 102.04338 c 0,9.25817 7.453478,16.71164 16.7116405,16.71164 H 119.02168 c 9.25817,0 16.71165,-7.45347 16.71165,-16.71164 V 177.97831 c 0,-9.25816 -7.45348,-16.71164 -16.71165,-16.71164 z m 101.942094,17.16381 -0.19999,42.04394 -14.85646,-14.85645 -15.011476,15.01148 -11.9972,-11.9972 15.01148,-15.01148 -14.9903,-14.9903 z m -71.397186,59.53383 11.9972,11.99668 -15.01149,15.01201 14.856461,14.85645 -42.043947,0.19999 0.199987,-42.04394 14.990299,14.9903 z"/></g></svg>