<svg xmlns="http://www.w3.org/2000/svg" xmlns:svg="http://www.w3.org/2000/svg" id="svg8" width="154mm" height="148mm" version="1.1" viewBox="0 0 154 148"><defs id="defs2"><filter style="color-interpolation-filters:sRGB" id="filter5399" width="1.307" height="1.322" x="-.154" y="-.161"><feGaussianBlur id="feGaussianBlur5401" stdDeviation="7.494"/></filter></defs><metadata id="metadata5"/><g id="layer1" transform="translate(0,-149)"><path id="path4514" d="m 113.36791,278.45904 c -3.96741,2.89636 -31.303269,-18.92877 -36.215402,-18.91755 -4.912132,0.0112 -32.148009,21.96099 -36.128602,19.08279 -3.980594,-2.8782 8.329091,-35.62049 6.800488,-40.28874 -1.528602,-4.66825 -30.820425,-23.78825 -29.313163,-28.46343 1.507262,-4.67519 36.450926,-3.0859 40.418331,-5.98226 3.967404,-2.89635 13.099938,-36.66294 18.012071,-36.67416 4.912133,-0.0112 14.19882,33.7133 18.179413,36.5915 3.980594,2.8782 38.916634,1.12931 40.445234,5.79756 1.5286,4.66825 -27.67557,23.92186 -29.18283,28.59704 -1.50727,4.67518 10.95186,37.3609 6.98446,40.25725 z" style="opacity:1;fill:#000;fill-opacity:.98039216;stroke:#000;stroke-width:.1984375;stroke-opacity:1;filter:url(#filter5399)"/><path style="opacity:1;fill:#faeb01;fill-opacity:1;stroke:#000;stroke-width:4;stroke-opacity:1" id="path3701" d="m 113.36775,278.45907 c -3.96741,2.89636 -31.303269,-18.92877 -36.215402,-18.91755 -4.912132,0.0112 -32.148009,21.96099 -36.128602,19.08279 -3.980594,-2.8782 8.329091,-35.62049 6.800488,-40.28874 -1.528603,-4.66825 -30.820425,-23.78825 -29.313163,-28.46343 1.507262,-4.67519 36.450926,-3.0859 40.41833,-5.98226 3.967404,-2.89635 13.099939,-36.66294 18.012072,-36.67416 4.912132,-0.0112 14.19882,33.7133 18.179413,36.5915 3.980593,2.8782 38.916634,1.12931 40.445234,5.79756 1.5286,4.66825 -27.67557,23.92186 -29.18283,28.59704 -1.50727,4.67519 10.95186,37.3609 6.98446,40.25725 z"/></g></svg>